<mxfile host="65bd71144e">
    <diagram id="beoFZecvn53zZasM793I" name="DOM">
        <mxGraphModel dx="1230" dy="583" grid="1" gridSize="10" guides="1" tooltips="1" connect="1" arrows="1" fold="1" page="1" pageScale="1" pageWidth="850" pageHeight="1100" math="0" shadow="0">
            <root>
                <mxCell id="0"/>
                <mxCell id="1" parent="0"/>
                <mxCell id="TCFtlQmJRrwtqtGQJMjS-2" value="" style="shape=image;verticalLabelPosition=bottom;labelBackgroundColor=#ffffff;verticalAlign=top;aspect=fixed;imageAspect=0;image=https://upload.wikimedia.org/wikipedia/commons/thumb/5/5a/DOM-model.svg/800px-DOM-model.svg.png;" parent="1" vertex="1">
                    <mxGeometry x="50" y="40" width="502" height="520" as="geometry"/>
                </mxCell>
            </root>
        </mxGraphModel>
    </diagram>
    <diagram id="XFZdDEHfshbMPWVk9yK_" name="CSS Box Model">
        <mxGraphModel dx="990" dy="583" grid="1" gridSize="10" guides="1" tooltips="1" connect="1" arrows="1" fold="1" page="1" pageScale="1" pageWidth="850" pageHeight="1100" math="0" shadow="0">
            <root>
                <mxCell id="dw3kf0y2BECsV9sVT4DM-0"/>
                <mxCell id="dw3kf0y2BECsV9sVT4DM-1" parent="dw3kf0y2BECsV9sVT4DM-0"/>
                <mxCell id="dw3kf0y2BECsV9sVT4DM-7" value="" style="rounded=0;whiteSpace=wrap;html=1;fontSize=1;strokeWidth=1;dashed=1;" vertex="1" parent="dw3kf0y2BECsV9sVT4DM-1">
                    <mxGeometry x="70" y="120" width="400" height="270" as="geometry"/>
                </mxCell>
                <mxCell id="dw3kf0y2BECsV9sVT4DM-3" value="" style="rounded=0;whiteSpace=wrap;html=1;strokeWidth=10;fillColor=#e1d5e7;strokeColor=#9673a6;verticalAlign=bottom;" vertex="1" parent="dw3kf0y2BECsV9sVT4DM-1">
                    <mxGeometry x="130" y="180" width="260" height="140" as="geometry"/>
                </mxCell>
                <mxCell id="dw3kf0y2BECsV9sVT4DM-2" value="HTML Element" style="rounded=0;whiteSpace=wrap;html=1;fillColor=#d5e8d4;strokeColor=#82b366;" vertex="1" parent="dw3kf0y2BECsV9sVT4DM-1">
                    <mxGeometry x="200" y="220" width="120" height="60" as="geometry"/>
                </mxCell>
                <mxCell id="dw3kf0y2BECsV9sVT4DM-5" value="Padding" style="text;html=1;strokeColor=none;fillColor=none;align=center;verticalAlign=middle;whiteSpace=wrap;rounded=0;" vertex="1" parent="dw3kf0y2BECsV9sVT4DM-1">
                    <mxGeometry x="230" y="280" width="60" height="30" as="geometry"/>
                </mxCell>
                <mxCell id="dw3kf0y2BECsV9sVT4DM-6" value="Border" style="text;html=1;strokeColor=none;fillColor=none;align=center;verticalAlign=middle;whiteSpace=wrap;rounded=0;" vertex="1" parent="dw3kf0y2BECsV9sVT4DM-1">
                    <mxGeometry x="230" y="320" width="60" height="30" as="geometry"/>
                </mxCell>
                <mxCell id="dw3kf0y2BECsV9sVT4DM-8" value="HTML Element" style="rounded=0;whiteSpace=wrap;html=1;fillColor=#d5e8d4;strokeColor=#82b366;" vertex="1" parent="dw3kf0y2BECsV9sVT4DM-1">
                    <mxGeometry x="220" y="50" width="120" height="60" as="geometry"/>
                </mxCell>
                <mxCell id="dw3kf0y2BECsV9sVT4DM-9" value="Margin" style="text;html=1;strokeColor=none;fillColor=none;align=center;verticalAlign=middle;whiteSpace=wrap;rounded=0;" vertex="1" parent="dw3kf0y2BECsV9sVT4DM-1">
                    <mxGeometry x="240" y="140" width="60" height="30" as="geometry"/>
                </mxCell>
            </root>
        </mxGraphModel>
    </diagram>
</mxfile>